<svg width="305" height="174" viewBox="0 0 305 174" fill="none" xmlns="http://www.w3.org/2000/svg">
<path d="M13.5625 119.719L57.5781 137.508V151.289L0.0625 124.641V114.375L57.5781 87.7969V101.578L13.5625 119.719ZM187.867 173.789H176.688L219.438 62.625H230.547L187.867 173.789ZM290.664 119.297L244.188 101.086V87.7266L304.234 114.305V124.57L244.188 151.219V137.719L290.664 119.297Z" fill="#ac3b61"/>
<path fill-rule="evenodd" clip-rule="evenodd" d="M104.026 30.9502C104.071 30.9667 104.116 30.9833 104.16 31H104V40H93C81.402 40 72 49.402 72 61C72 70.3582 78.1213 78.2868 86.5784 81H93L93 82V93V104V125H157V104V93V82V81H163.422C171.879 78.2868 178 70.3582 178 61C178 49.402 168.598 40 157 40H146V31H145.84C145.87 30.9887 145.9 30.9775 145.93 30.9664C145.945 30.961 145.96 30.9556 145.974 30.9502C145.427 19.84 136.246 11 125 11C113.754 11 104.573 19.84 104.026 30.9502ZM156.861 29.0003C155.349 12.7338 141.662 0 125 0C108.338 0 94.651 12.7338 93.1387 29.0003L93 29C75.3269 29 61 43.3269 61 61C61 74.8081 69.7457 86.5736 82 91.0592L82 165H84H93H157H168V154V136V125V91.0592C180.254 86.5736 189 74.8081 189 61C189 43.3269 174.673 29 157 29L156.861 29.0003ZM93 136V154H157V136H93ZM110 89V118H104V89H110ZM128 118V89H122V118H128ZM146 118V89H140V118H146Z" fill="#ac3b61"/>
</svg>
