<svg width="509" height="514" viewBox="0 0 509 514" fill="none" xmlns="http://www.w3.org/2000/svg">
<path fill-rule="evenodd" clip-rule="evenodd" d="M338 184C338 269.052 269.052 338 184 338C98.9482 338 30 269.052 30 184C30 98.9482 98.9482 30 184 30C269.052 30 338 98.9482 338 184ZM300.776 326.202C269.008 352.32 228.335 368 184 368C82.3796 368 0 285.62 0 184C0 82.3796 82.3796 0 184 0C285.62 0 368 82.3796 368 184C368 230.484 350.763 272.942 322.331 305.331L509 492L487.787 513.213L300.776 326.202Z" fill="white"/>
</svg>
