<svg width="128" height="165" viewBox="0 0 128 165" fill="none" xmlns="http://www.w3.org/2000/svg">
<path fill-rule="evenodd" clip-rule="evenodd" d="M43.0258 30.9502C43.0707 30.9667 43.1156 30.9833 43.1605 31H43V40H32C20.402 40 11 49.402 11 61C11 70.3582 17.1213 78.2868 25.5784 81H32L32 82V93V104V125H96V104V93V82V81H102.422C110.879 78.2868 117 70.3582 117 61C117 49.402 107.598 40 96 40H85V31H84.8395C84.8698 30.9887 84.9001 30.9775 84.9304 30.9664C84.945 30.961 84.9596 30.9556 84.9742 30.9502C84.4272 19.84 75.246 11 64 11C52.754 11 43.5728 19.84 43.0258 30.9502ZM95.8613 29.0003C94.349 12.7338 80.6616 0 64 0C47.3384 0 33.651 12.7338 32.1387 29.0003L32 29C14.3269 29 0 43.3269 0 61C0 74.8081 8.74571 86.5736 21 91.0592L21 165H23H32H96H107V154V136V125V91.0592C119.254 86.5736 128 74.8081 128 61C128 43.3269 113.673 29 96 29L95.8613 29.0003ZM32 136V154H96V136H32ZM49 89V118H43V89H49ZM67 118V89H61V118H67ZM85 118V89H79V118H85Z" fill="#22F200"/>
</svg>
